<?xml version="1.0" standalone="no"?><!DOCTYPE svg PUBLIC "-//W3C//DTD SVG 1.1//EN" "http://www.w3.org/Graphics/SVG/1.1/DTD/svg11.dtd"><svg t="1581475706954" class="icon" viewBox="0 0 1024 1024" version="1.1" xmlns="http://www.w3.org/2000/svg" p-id="11764" xmlns:xlink="http://www.w3.org/1999/xlink" width="48" height="48"><defs><style type="text/css"></style></defs><path d="M512 681.984q34.005333 0 59.989333 25.984t25.984 59.989333-25.984 59.989333-59.989333 25.984-59.989333-25.984-25.984-59.989333 25.984-59.989333 59.989333-25.984zM512 425.984q34.005333 0 59.989333 25.984t25.984 59.989333-25.984 59.989333-59.989333 25.984-59.989333-25.984-25.984-59.989333 25.984-59.989333 59.989333-25.984zM512 342.016q-34.005333 0-59.989333-25.984t-25.984-59.989333 25.984-59.989333 59.989333-25.984 59.989333 25.984 25.984 59.989333-25.984 59.989333-59.989333 25.984z" p-id="11765" fill="#ffffff"></path></svg>