<?xml version="1.0" standalone="no"?><!DOCTYPE svg PUBLIC "-//W3C//DTD SVG 1.1//EN" "http://www.w3.org/Graphics/SVG/1.1/DTD/svg11.dtd"><svg t="1557050003388" class="icon" style="" viewBox="0 0 1024 1024" version="1.1" xmlns="http://www.w3.org/2000/svg" p-id="16186" xmlns:xlink="http://www.w3.org/1999/xlink" width="200" height="200"><defs><style type="text/css"></style></defs><path d="M64 453.6a80 80 0 0 0 52.8 76.16v-144.96c0-2.08 1.12-5.28 1.12-7.36A81.6 81.6 0 0 0 64 453.6zM349.28 632.96H212.8l51.04 185.6a64 64 0 0 0 62.56 48 65.76 65.76 0 0 0 53.12-26.08 60.64 60.64 0 0 0 10.56-56.48zM117.92 376.48h0.96v-1.12c0 1.12 0 1.12-0.96 1.12zM865.44 361.92h-8.32v187.68h8.32a93.92 93.92 0 1 0 0-187.68zM148.16 384.8v148a70.72 70.72 0 0 0 70.88 68.8h189.76V320H219.04a67.68 67.68 0 0 0-70.88 64.8zM440 605.92l385.92 154.24V157.44L440 311.84v294.08z" p-id="16187" fill="#baabba"></path></svg>