<?xml version="1.0" standalone="no"?><!DOCTYPE svg PUBLIC "-//W3C//DTD SVG 1.1//EN" "http://www.w3.org/Graphics/SVG/1.1/DTD/svg11.dtd"><svg t="1556705098607" class="icon" style="" viewBox="0 0 1024 1024" version="1.1" xmlns="http://www.w3.org/2000/svg" p-id="10333" xmlns:xlink="http://www.w3.org/1999/xlink" width="48" height="48"><defs><style type="text/css"></style></defs><path d="M512 943.1C274.3 943.1 80.9 749.7 80.9 512 80.9 274.3 274.3 80.9 512 80.9S943.1 274.3 943.1 512c0 237.7-193.4 431.1-431.1 431.1z m0-797.5C309.9 145.6 145.6 310 145.6 512S309.9 878.4 512 878.4 878.4 714.1 878.4 512 714.1 145.6 512 145.6z" p-id="10334" fill="#ffffff"></path><path d="M367.8 433.9m-61.8 0a61.8 61.8 0 1 0 123.6 0 61.8 61.8 0 1 0-123.6 0Z" p-id="10335" fill="#ffffff"></path><path d="M612.478634 477.584606a61.8 61.8 0 1 0 87.396873-87.399923 61.8 61.8 0 1 0-87.396873 87.399923Z" p-id="10336" fill="#ffffff"></path><path d="M512 722.3c56.9 0 103-53.5 103-119.4 0-16.2-50.5-24.5-101.4-24.7-52-0.3-104.5 7.9-104.5 24.7-0.1 65.9 46 119.4 102.9 119.4z" p-id="10337" fill="#ffffff"></path></svg>